# xmcd CD database file
#
# Track frame offsets:
#	150
#	18308
#	34419
#	51265
#
# Disc length: 908 seconds
#
# Revision: 4
# Processed by: cddbd v1.5.2PL0 Copyright (c) Steve Scherf et al.
# Submitted via: CDex 1.50
#
DISCID=2e038a04
DTITLE=Enya - Amarantine (Special Christmas Edition)
DYEAR=2006
DGENRE=New Age
TTITLE0=Adeste, Fideles (bonus track)
TTITLE1=The Magic of the Night (bonus track)
TTITLE2=We Wish You a Merry Christmas (bonus track)
TTITLE3=Christmas Secrets (bonus track)
EXTD=YEAR: 2006
EXTT0=
EXTT1=
EXTT2=
EXTT3=
PLAYORDER=
